<svg viewBox="0 0 1000 1000" xmlns="http://www.w3.org/2000/svg" xml:space="preserve" style="fill-rule:evenodd;clip-rule:evenodd;stroke-linejoin:round;stroke-miterlimit:2"><circle cx="495.677" cy="495.677" r="495.677" style="fill:#0969da" transform="scale(1.00872)"/><path d="M8 16c-4.389 0-8-3.611-8-8 0-4.389 3.611-8 8-8 4.389 0 8 3.611 8 8 0 4.389-3.611 8-8 8Zm3.031-12a4.382 4.382 0 0 0-3.097 1.283l-.23.229c-.156.157-.308.32-.452.49H5.65a.876.876 0 0 0-.746.417l-.856 1.388a.377.377 0 0 0 .21.556l1.552.477 1.35 1.35.478 1.553a.374.374 0 0 0 .555.21l1.389-.855a.877.877 0 0 0 .416-.746V8.747c.17-.144.333-.295.49-.452l.23-.23A4.379 4.379 0 0 0 12 4.969v-.093A.88.88 0 0 0 11.124 4h-.093Zm-5.107 7.144h-.001a.813.813 0 0 0-.74-1.137.81.81 0 0 0-.59.256c-.395.394-.564 1.258-.62 1.62a.12.12 0 0 0 .035.108.12.12 0 0 0 .108.035c.362-.056 1.226-.225 1.62-.619a.793.793 0 0 0 .188-.263Z" style="fill:#fff;fill-rule:nonzero" transform="translate(125 125) scale(46.875)"/></svg>